:FULLY-SPECIFIED
:FORCE-ALL-JOINTS-BE-3DOF
:DEGREES
1529
root -4.45894 15.3216 20.0365 548.575 -14.8806 545.127
lfemur -38.023 18.7576 -5.69072
ltibia 89.7265 0 0
lfoot -16.3059 24.6143 0
ltoes -13.7079 0 0
rfemur -38.5462 -4.58767 18.3713
rtibia 61.2891 0 0
rfoot -18.2383 -17.7125 0
rtoes -32.8433 0 0
lowerback 17.3152 0.731913 5.30705
upperback -1.39365 2.27274 3.83078
thorax -11.2672 0.780763 0.620135
lowerneck -4.63349 7.59632 3.87688
upperneck 1.59557 10.1469 -9.15882
head 2.07487 4.8681 -3.28872
lclavicle 3.77691e-15 2.3059e-14 0
lhumerus -15.6823 -26.6996 80.8089
lradius 85.9845 0 0
lwrist -15.0524 0 0
lhand -30.0409 71.1651 0
lfingers 7.12502 0 0
lthumb -3.35692 -101.118 0
rclavicle 3.77691e-15 2.3059e-14 0
rhumerus -52.327 35.555 -91.3912
rradius 107.237 0 0
rwrist -53.5546 0 0
rhand 15.1559 -26.124 0
rfingers 7.12502 0 0
rthumb 39.9984 -51.3505 0
1530
root -4.51842 15.3312 20.0371 548.661 -17.2055 545.139
lfemur -37.6892 19.1162 -5.17694
ltibia 88.7653 0 0
lfoot -16.3376 24.8575 0
ltoes -13.8912 0 0
rfemur -37.944 -4.85783 18.1719
rtibia 61.2186 0 0
rfoot -17.9083 -18.2668 0
rtoes -33.1367 0 0
lowerback 17.0268 0.685201 5.24681
upperback -1.42209 2.17979 3.885
thorax -11.1334 0.739142 0.735935
lowerneck -4.68533 7.33237 3.70515
upperneck 1.48692 9.77693 -8.92046
head 2.02132 4.6851 -3.20623
lclavicle 6.97207e-15 2.18028e-14 0
lhumerus -18.5165 -24.4736 82.4096
lradius 83.7999 0 0
lwrist -16.3947 0 0
lhand -30.1716 70.9906 0
lfingers 7.12502 0 0
lthumb -3.48319 -89.7187 0
rclavicle 6.97207e-15 2.18028e-14 0
rhumerus -53.4271 34.5787 -92.0269
rradius 107.023 0 0
rwrist -54.5508 0 0
rhand 14.9068 -26.0428 0
rfingers 7.12502 0 0
rthumb 39.7598 -51.3029 0
1531
root -4.5779 15.3409 20.0377 548.707 -18.4145 545.132
lfemur -37.5399 19.2784 -4.96003
ltibia 88.207 0 0
lfoot -16.3315 24.9827 0
ltoes -14.0347 0 0
rfemur -37.6244 -4.99867 18.0531
rtibia 61.1961 0 0
rfoot -17.7206 -18.5496 0
rtoes -33.2654 0 0
lowerback 16.8715 0.658777 5.20812
upperback -1.43759 2.12778 3.91147
thorax -11.0616 0.716536 0.798897
lowerneck -4.7107 7.18655 3.6082
upperneck 1.43405 9.57458 -8.79049
head 1.9932 4.58529 -3.15952
lclavicle 8.63149e-15 2.11264e-14 0
lhumerus -19.7849 -23.3564 83.1294
lradius 82.6954 0 0
lwrist -17.0251 0 0
lhand -30.2359 70.8016 0
lfingers 7.12502 0 0
lthumb -3.54521 -83.8809 0
rclavicle 8.63149e-15 2.11264e-14 0
rhumerus -53.9794 34.0778 -92.3224
rradius 106.902 0 0
rwrist -55.0615 0 0
rhand 14.7191 -26.0236 0
rfingers 7.12502 0 0
rthumb 39.5803 -51.3128 0
1532
root -4.63739 15.3505 20.0383 548.729 -18.8982 545.095
lfemur -37.5408 19.2824 -4.9989
ltibia 87.8374 0 0
lfoot -16.2725 25.0296 0
ltoes -14.2125 0 0
rfemur -37.4805 -5.0559 17.9678
rtibia 61.2225 0 0
rfoot -17.6056 -18.649 0
rtoes -33.2572 0 0
lowerback 16.7963 0.642874 5.17426
upperback -1.44555 2.0978 3.91772
thorax -11.0272 0.705085 0.830949
lowerneck -4.71686 7.10681 3.55032
upperneck 1.42199 9.46872 -8.72348
head 1.98127 4.53373 -3.13128
lclavicle 9.29008e-15 2.07978e-14 0
lhumerus -19.7789 -23.0103 83.1358
lradius 82.3324 0 0
lwrist -17.1082 0 0
lhand -30.2521 70.4805 0
lfingers 7.12502 0 0
lthumb -3.56093 -81.7702 0
rclavicle 9.29008e-15 2.07978e-14 0
rhumerus -54.1512 33.8944 -92.353
rradius 106.831 0 0
rwrist -55.2474 0 0
rhand 14.4985 -26.0735 0
rfingers 7.12502 0 0
rthumb 39.3701 -51.4032 0
1533
root -4.69687 15.3602 20.0389 548.742 -19.0471 545.017
lfemur -37.6579 19.1667 -5.25247
ltibia 87.4425 0 0
lfoot -16.1458 25.0378 0
ltoes -14.4987 0 0
rfemur -37.4053 -5.07521 17.8687
rtibia 61.2987 0 0
rfoot -17.4931 -18.6533 0
rtoes -33.1399 0 0
lowerback 16.7478 0.627723 5.12847
upperback -1.45139 2.07092 3.91132
thorax -11.0058 0.696929 0.854015
lowerneck -4.71111 7.04109 3.49577
upperneck 1.43575 9.38824 -8.67395
head 1.97629 4.49551 -3.10424
lclavicle 9.48277e-15 2.05852e-14 0
lhumerus -18.7897 -23.0977 82.5966
lradius 82.3723 0 0
lwrist -16.8088 0 0
lhand -30.239 69.9096 0
lfingers 7.12502 0 0
lthumb -3.54827 -81.5526 0
rclavicle 9.48277e-15 2.05852e-14 0
rhumerus -54.1094 33.8704 -92.1939
rradius 106.765 0 0
rwrist -55.2693 0 0
rhand 14.1507 -26.1996 0
rfingers 7.12502 0 0
rthumb 39.0393 -51.5972 0
1534
root -4.75635 15.3698 20.0395 548.762 -19.2519 544.889
lfemur -37.8568 18.9696 -5.67966
ltibia 86.8082 0 0
lfoot -15.9361 25.0472 0
ltoes -14.9676 0 0
rfemur -37.2919 -5.10234 17.7089
rtibia 61.4256 0 0
rfoot -17.3135 -18.6507 0
rtoes -32.9413 0 0
lowerback 16.6729 0.603558 5.05402
upperback -1.46053 2.02824 3.89982
thorax -10.9728 0.684209 0.890023
lowerneck -4.70071 6.93733 3.40883
upperneck 1.46034 9.262 -8.59646
head 1.96902 4.43568 -3.06108
lclavicle 9.74448e-15 2.02567e-14 0
lhumerus -17.1087 -23.2808 81.6794
lradius 82.4764 0 0
lwrist -16.2915 0 0
lhand -30.2151 68.9711 0
lfingers 7.12502 0 0
lthumb -3.52518 -81.3936 0
rclavicle 9.74448e-15 2.02567e-14 0
rhumerus -54.0212 33.8481 -91.9203
rradius 106.66 0 0
rwrist -55.2879 0 0
rhand 13.5816 -26.4091 0
rfingers 7.12502 0 0
rthumb 38.4978 -51.9181 0
